<svg xmlns="http://www.w3.org/2000/svg" viewBox="0 0 988.12 151.28"><g id="Layer_2" data-name="Layer 2"><g id="Layer_1-2" data-name="Layer 1"><path d="M8.36,82.05v66.62H0V0H8.36V73.69H70.62V0H79V148.67H70.62V82.05Z"/><path d="M124.24,131.58a40.21,40.21,0,0,0,28.06,10.78A40.66,40.66,0,0,0,182.13,130c1.05-1.06,2-2.14,3-3.26l8.83,3.16a53.67,53.67,0,0,1-5.49,6.42,51,51,0,0,1-72.2,0,49.29,49.29,0,0,1-15-36.15,49.14,49.14,0,0,1,15-36,49.13,49.13,0,0,1,36.06-15A49.13,49.13,0,0,1,184,60q2.24,1.86,4.46,4.09c.56.55,1.09,1.11,1.58,1.67l-6.31,6.32Zm53.33-65.14a42.21,42.21,0,0,0-55,4,40.48,40.48,0,0,0-12.36,29.78,40.24,40.24,0,0,0,8.37,25.27Z"/><path d="M224.59,0V148.67h-8.36V0Z"/><path d="M260.83,0V148.67h-8.36V0Z"/><path d="M334.14,49.16a49.06,49.06,0,0,1,36.1,15,49.29,49.29,0,0,1,14.92,36.14,49.21,49.21,0,0,1-14.92,36.06,51,51,0,0,1-72.15,0,49.17,49.17,0,0,1-15-36.06,49.25,49.25,0,0,1,15-36.14A49.1,49.1,0,0,1,334.14,49.16ZM304.32,70.43A40.66,40.66,0,0,0,292,100.26,42.21,42.21,0,0,0,364,130a40.47,40.47,0,0,0,12.36-29.78,42.19,42.19,0,0,0-72-29.83Z"/><path d="M481.61,82.05v66.62h-8.36V0h8.36V73.69h62.26V0h8.36V148.67h-8.36V82.05Z"/><path d="M625.55,49.16a49.09,49.09,0,0,1,36.1,15,49.32,49.32,0,0,1,14.91,36.14,49.24,49.24,0,0,1-14.91,36.06,51,51,0,0,1-72.16,0,49.17,49.17,0,0,1-15-36.06,49.25,49.25,0,0,1,15-36.14A49.11,49.11,0,0,1,625.55,49.16ZM595.72,70.43a40.66,40.66,0,0,0-12.36,29.83,42.19,42.19,0,0,0,84.37,0,42.19,42.19,0,0,0-72-29.83Z"/><path d="M707.22,0V148.67h-8.36V0Z"/><path d="M743.46,0V148.67H735.1V0Z"/><path d="M816.78,49.16a49.09,49.09,0,0,1,36.1,15,49.32,49.32,0,0,1,14.91,36.14,49.24,49.24,0,0,1-14.91,36.06,51,51,0,0,1-72.16,0,49.17,49.17,0,0,1-15-36.06,49.25,49.25,0,0,1,15-36.14A49.13,49.13,0,0,1,816.78,49.16ZM787,70.43a40.66,40.66,0,0,0-12.36,29.83,42.19,42.19,0,0,0,84.37,0,42.19,42.19,0,0,0-72-29.83Z"/><path d="M934,124.51V57.42h8.36v65.05a18.49,18.49,0,0,0,5.53,13.66,18.77,18.77,0,0,0,32-12.36h-.09V57.42h8.36v66.35A27,27,0,0,1,941.94,142a31.31,31.31,0,0,1-3.72-4.46,27.86,27.86,0,0,1-3.8,4.46,27.06,27.06,0,0,1-46.19-18.21V57.42h8.37v66.35h-.1a18.93,18.93,0,0,0,18.77,17.84A18.67,18.67,0,0,0,934,124.51Z"/></g></g></svg>